<svg width="30" height="30" viewBox="0 0 30 30" fill="none" xmlns="http://www.w3.org/2000/svg">
<path fill-rule="evenodd" clip-rule="evenodd" d="M14.7989 29.3526H14.793C12.4045 29.3517 10.0576 28.7525 7.97319 27.6155L0.407837 29.6L2.43245 22.2049C1.18357 20.0406 0.526416 17.5855 0.527487 15.0703C0.530617 7.20174 6.93265 0.800049 14.7988 0.800049C18.6165 0.801697 22.1997 2.28791 24.894 4.98546C27.5884 7.68287 29.0715 11.2684 29.07 15.0816C29.0668 22.9483 22.6673 29.3494 14.7989 29.3526ZM8.3237 25.0319L8.75684 25.289C10.578 26.3697 12.6656 26.9415 14.7941 26.9424H14.7989C21.3367 26.9424 26.6578 21.6212 26.6604 15.0807C26.6616 11.9112 25.429 8.9311 23.1895 6.689C20.95 4.4469 17.9718 3.21155 14.8036 3.21045C8.26076 3.21045 2.93961 8.53112 2.93701 15.0711C2.93609 17.3124 3.5632 19.4951 4.75057 21.3836L5.0326 21.8324L3.83432 26.2096L8.3237 25.0319ZM21.5003 18.154C21.749 18.2742 21.9169 18.3554 21.9886 18.4751C22.0777 18.6238 22.0777 19.3377 21.7807 20.1708C21.4835 21.0038 20.0589 21.764 19.3737 21.8663C18.7594 21.9582 17.982 21.9965 17.1278 21.725C16.6099 21.5607 15.9457 21.3413 15.095 20.9739C11.752 19.5304 9.49287 16.2904 9.0659 15.678C9.03599 15.6351 9.01507 15.6051 9.0034 15.5895L9.00052 15.5857C8.81181 15.3339 7.54736 13.6468 7.54736 11.9008C7.54736 10.2582 8.3542 9.39728 8.72559 9.001C8.75104 8.97385 8.77444 8.94888 8.79539 8.92599C9.12224 8.56899 9.50858 8.47974 9.74629 8.47974C9.98398 8.47974 10.222 8.48193 10.4297 8.49237C10.4554 8.49366 10.482 8.4935 10.5096 8.49334C10.7174 8.49212 10.9765 8.4906 11.232 9.10449C11.3304 9.34075 11.4742 9.69102 11.626 10.0604C11.9328 10.8074 12.2718 11.6328 12.3314 11.7522C12.4206 11.9307 12.48 12.1388 12.3612 12.3769C12.3433 12.4126 12.3268 12.4463 12.3111 12.4785C12.2218 12.6608 12.1561 12.7948 12.0046 12.9718C11.945 13.0413 11.8834 13.1163 11.8219 13.1913C11.6992 13.3407 11.5765 13.4901 11.4697 13.5965C11.2912 13.7743 11.1054 13.9672 11.3134 14.3242C11.5214 14.6812 12.237 15.8489 13.2971 16.7945C14.4366 17.8109 15.427 18.2405 15.929 18.4582C16.0271 18.5007 16.1065 18.5352 16.1647 18.5644C16.5212 18.7429 16.7292 18.713 16.9372 18.4751C17.1452 18.2371 17.8286 17.4338 18.0663 17.0769C18.304 16.72 18.5418 16.7795 18.8686 16.8984C19.1955 17.0176 20.9487 17.8801 21.3052 18.0586C21.3749 18.0934 21.4399 18.1249 21.5003 18.154Z" fill="#FDFDFD"/>
</svg>
