<svg width="27" height="27" viewBox="0 0 27 27" fill="none" xmlns="http://www.w3.org/2000/svg">
<path d="M18.0738 15.4571C17.7229 15.0774 17.3287 14.74 16.8994 14.452C18.6307 13.1135 19.8441 11.2159 20.3327 9.08276C20.3694 8.9284 20.3752 8.76829 20.3496 8.61169C20.3241 8.45509 20.2677 8.30511 20.1839 8.1704C20.1001 8.0357 19.9904 7.91894 19.8611 7.82689C19.7319 7.73483 19.5857 7.66929 19.431 7.63407C19.2763 7.59884 19.1161 7.59462 18.9598 7.62166C18.8034 7.64869 18.654 7.70644 18.5201 7.79156C18.3862 7.87669 18.2705 7.98751 18.1797 8.11761C18.0888 8.24772 18.0247 8.39453 17.991 8.54956C17.7637 9.54757 17.3214 10.484 16.6951 11.2935C16.0687 12.103 15.2733 12.7661 14.3643 13.2366V8.81856C14.3567 8.73036 14.339 8.64331 14.3114 8.55917C14.3033 8.48965 14.2892 8.42095 14.2694 8.35382C14.2182 8.24413 14.1506 8.14289 14.0688 8.0536C14.0472 8.02958 14.0364 7.99595 14.0136 7.97193C13.9257 7.89075 13.8261 7.82316 13.7182 7.77139C13.687 7.75457 13.6641 7.72695 13.6317 7.71374C13.5399 7.683 13.4448 7.66324 13.3483 7.6549C13.2886 7.63751 13.2275 7.62506 13.1658 7.61767L12.3804 7.61527H12.3768C12.0954 7.61328 11.8224 7.71063 11.6058 7.89019C11.3892 8.06974 11.2429 8.31997 11.1926 8.59681C11.1424 8.87365 11.1915 9.15933 11.3312 9.40354C11.4709 9.64774 11.6924 9.83481 11.9565 9.93179V15.8042C10.0534 13.8288 8.79322 11.3235 8.34179 8.61802C8.2886 8.30398 8.11284 8.02393 7.85317 7.83948C7.5935 7.65504 7.2712 7.58129 6.95716 7.63448C6.64312 7.68767 6.36307 7.86343 6.17863 8.1231C5.99418 8.38277 5.92044 8.70508 5.97363 9.01911C6.67535 13.2015 9.00753 16.9347 12.4584 19.3996C12.5078 19.4289 12.5591 19.4546 12.6122 19.4765C12.654 19.5009 12.6973 19.5225 12.7419 19.5413C12.8757 19.5949 13.0181 19.6238 13.1622 19.6266C13.3389 19.6244 13.5129 19.5825 13.6714 19.5041C13.6834 19.4981 13.6966 19.5017 13.7086 19.4957C13.8147 19.4401 13.9119 19.3689 13.9968 19.2843C14.0148 19.2675 14.0256 19.2483 14.0424 19.2303C14.1199 19.1453 14.1847 19.0494 14.2346 18.9457C14.2511 18.9116 14.2659 18.8768 14.279 18.8412C14.3317 18.7089 14.3602 18.5681 14.3631 18.4257V15.8726C15.1077 16.0909 15.7787 16.5081 16.3037 17.0795L18.2816 19.2375C18.4969 19.4722 18.7966 19.6118 19.1148 19.6256C19.4331 19.6393 19.7437 19.5261 19.9784 19.3108C20.2132 19.0955 20.3528 18.7957 20.3665 18.4775C20.3802 18.1593 20.267 17.8486 20.0517 17.6139L18.0738 15.4571ZM17.268 0.409912H9.89935C2.50545 0.409912 0.367859 2.5451 0.367859 9.92939V17.2981C0.367859 24.692 2.50305 26.8296 9.88734 26.8296H17.256C24.6499 26.8296 26.7875 24.6944 26.7875 17.3101V9.9414C26.7875 2.5475 24.6523 0.409912 17.268 0.409912ZM24.3857 17.3101C24.3857 23.3626 23.3193 24.4278 17.2548 24.4278H9.88854C3.83484 24.4278 2.76964 23.3614 2.76964 17.2969V9.93059C2.76964 3.87689 3.83604 2.8117 9.90055 2.8117H17.268C23.3205 2.8117 24.3857 3.87809 24.3857 9.9426V17.3101Z" fill="#FEFEFE"/>
</svg>
