<svg width="23" height="23" viewBox="0 0 23 23" fill="none" xmlns="http://www.w3.org/2000/svg">
<path d="M5.1247 9.96702C6.85398 13.3655 9.64006 16.1516 13.0386 17.8809L15.6805 15.2389C16.0168 14.9027 16.4851 14.8066 16.9055 14.9387C18.2505 15.383 19.6915 15.6232 21.1926 15.6232C21.5111 15.6232 21.8166 15.7497 22.0418 15.975C22.267 16.2002 22.3935 16.5056 22.3935 16.8241V21.0272C22.3935 21.3457 22.267 21.6512 22.0418 21.8764C21.8166 22.1016 21.5111 22.2281 21.1926 22.2281C15.7782 22.2281 10.5855 20.0773 6.75693 16.2487C2.92834 12.4201 0.777466 7.2274 0.777466 1.81295C0.777466 1.49446 0.903988 1.18901 1.1292 0.963794C1.35441 0.738583 1.65986 0.612061 1.97836 0.612061H6.18148C6.49998 0.612061 6.80543 0.738583 7.03064 0.963794C7.25585 1.18901 7.38238 1.49446 7.38238 1.81295C7.38238 3.31407 7.62256 4.75514 8.06689 6.10014C8.19898 6.52045 8.10291 6.9888 7.76666 7.32505L5.1247 9.96702Z" fill="white"/>
</svg>
