<svg width="25" height="19" viewBox="0 0 25 19" fill="none" xmlns="http://www.w3.org/2000/svg">
<path fill-rule="evenodd" clip-rule="evenodd" d="M0.426993 6.69739H24.6888C24.6846 3.69315 24.6199 2.1284 23.6232 1.13168C22.5572 0.0657349 20.8416 0.0657349 17.4104 0.0657349H7.70543C4.2742 0.0657349 2.55859 0.0657349 1.49265 1.13168C0.495925 2.1284 0.431196 3.69315 0.426993 6.69739ZM24.6891 7.99139H0.426701V10.9838C0.426701 14.4151 0.426701 16.1307 1.49265 17.1966C2.55859 18.2626 4.2742 18.2626 7.70543 18.2626H17.4104C20.8416 18.2626 22.5572 18.2626 23.6232 17.1966C24.6891 16.1307 24.6891 14.4151 24.6891 10.9838V7.99139ZM6.49231 12.763C6.13498 12.763 5.84531 13.0527 5.84531 13.41C5.84531 13.7673 6.13498 14.057 6.49231 14.057H6.50444C6.86177 14.057 7.15144 13.7673 7.15144 13.41C7.15144 13.0527 6.86177 12.763 6.50444 12.763H6.49231Z" fill="#50BEFF"/>
</svg>
